<?xml version="1.0" encoding="utf-8"?>
<!-- Generator: Adobe Illustrator 24.3.0, SVG Export Plug-In . SVG Version: 6.00 Build 0)  -->
<svg version="1.1" id="Layer_1" xmlns="http://www.w3.org/2000/svg" xmlns:xlink="http://www.w3.org/1999/xlink" x="0px" y="0px"
	 viewBox="0 0 177.8 422.4" style="enable-background:new 0 0 177.8 422.4;" xml:space="preserve">
<style type="text/css">
	.st0{fill:#F2F2F2;}
</style>
<circle class="st0" cx="15" cy="201.2" r="3.5"/>
<circle class="st0" cx="36" cy="201.2" r="3.5"/>
<circle class="st0" cx="57" cy="201.2" r="3.5"/>
<circle class="st0" cx="78" cy="201.2" r="3.5"/>
<circle class="st0" cx="99" cy="201.2" r="3.5"/>
<circle class="st0" cx="120" cy="201.2" r="3.5"/>
<circle class="st0" cx="141" cy="201.2" r="3.5"/>
<circle class="st0" cx="162" cy="201.2" r="3.5"/>
<circle class="st0" cx="15" cy="180.2" r="3.5"/>
<circle class="st0" cx="36" cy="180.2" r="3.5"/>
<circle class="st0" cx="57" cy="180.2" r="3.5"/>
<circle class="st0" cx="78" cy="180.2" r="3.5"/>
<circle class="st0" cx="99" cy="180.2" r="3.5"/>
<circle class="st0" cx="120" cy="180.2" r="3.5"/>
<circle class="st0" cx="141" cy="180.2" r="3.5"/>
<circle class="st0" cx="162" cy="180.2" r="3.5"/>
<circle class="st0" cx="15" cy="159.2" r="3.5"/>
<circle class="st0" cx="36" cy="159.2" r="3.5"/>
<circle class="st0" cx="57" cy="159.2" r="3.5"/>
<circle class="st0" cx="78" cy="159.2" r="3.5"/>
<circle class="st0" cx="99" cy="159.2" r="3.5"/>
<circle class="st0" cx="120" cy="159.2" r="3.5"/>
<circle class="st0" cx="141" cy="159.2" r="3.5"/>
<circle class="st0" cx="162" cy="159.2" r="3.5"/>
<circle class="st0" cx="15" cy="138.2" r="3.5"/>
<circle class="st0" cx="36" cy="138.2" r="3.5"/>
<circle class="st0" cx="57" cy="138.2" r="3.5"/>
<circle class="st0" cx="78" cy="138.2" r="3.5"/>
<circle class="st0" cx="99" cy="138.2" r="3.5"/>
<circle class="st0" cx="120" cy="138.2" r="3.5"/>
<circle class="st0" cx="141" cy="138.2" r="3.5"/>
<circle class="st0" cx="162" cy="138.2" r="3.5"/>
<circle class="st0" cx="15" cy="117.2" r="3.5"/>
<circle class="st0" cx="36" cy="117.2" r="3.5"/>
<circle class="st0" cx="57" cy="117.2" r="3.5"/>
<circle class="st0" cx="78" cy="117.2" r="3.5"/>
<circle class="st0" cx="99" cy="117.2" r="3.5"/>
<circle class="st0" cx="120" cy="117.2" r="3.5"/>
<circle class="st0" cx="141" cy="117.2" r="3.5"/>
<circle class="st0" cx="162" cy="117.2" r="3.5"/>
<circle class="st0" cx="15" cy="96.2" r="3.5"/>
<circle class="st0" cx="36" cy="96.2" r="3.5"/>
<circle class="st0" cx="57" cy="96.2" r="3.5"/>
<circle class="st0" cx="78" cy="96.2" r="3.5"/>
<circle class="st0" cx="99" cy="96.2" r="3.5"/>
<circle class="st0" cx="120" cy="96.2" r="3.5"/>
<circle class="st0" cx="141" cy="96.2" r="3.5"/>
<circle class="st0" cx="162" cy="96.2" r="3.5"/>
<circle class="st0" cx="15" cy="75.2" r="3.5"/>
<circle class="st0" cx="36" cy="75.2" r="3.5"/>
<circle class="st0" cx="57" cy="75.2" r="3.5"/>
<circle class="st0" cx="78" cy="75.2" r="3.5"/>
<circle class="st0" cx="99" cy="75.2" r="3.5"/>
<circle class="st0" cx="120" cy="75.2" r="3.5"/>
<circle class="st0" cx="141" cy="75.2" r="3.5"/>
<circle class="st0" cx="162" cy="75.2" r="3.5"/>
<circle class="st0" cx="15" cy="54.2" r="3.5"/>
<circle class="st0" cx="36" cy="54.2" r="3.5"/>
<circle class="st0" cx="57" cy="54.2" r="3.5"/>
<circle class="st0" cx="78" cy="54.2" r="3.5"/>
<circle class="st0" cx="99" cy="54.2" r="3.5"/>
<circle class="st0" cx="120" cy="54.2" r="3.5"/>
<circle class="st0" cx="141" cy="54.2" r="3.5"/>
<circle class="st0" cx="162" cy="54.2" r="3.5"/>
<circle class="st0" cx="15" cy="33.2" r="3.5"/>
<circle class="st0" cx="36" cy="33.2" r="3.5"/>
<circle class="st0" cx="57" cy="33.2" r="3.5"/>
<circle class="st0" cx="78" cy="33.2" r="3.5"/>
<circle class="st0" cx="99" cy="33.2" r="3.5"/>
<circle class="st0" cx="120" cy="33.2" r="3.5"/>
<circle class="st0" cx="141" cy="33.2" r="3.5"/>
<circle class="st0" cx="162" cy="33.2" r="3.5"/>
<circle class="st0" cx="15" cy="12.2" r="3.5"/>
<circle class="st0" cx="36" cy="12.2" r="3.5"/>
<circle class="st0" cx="57" cy="12.2" r="3.5"/>
<circle class="st0" cx="78" cy="12.2" r="3.5"/>
<circle class="st0" cx="99" cy="12.2" r="3.5"/>
<circle class="st0" cx="120" cy="12.2" r="3.5"/>
<circle class="st0" cx="141" cy="12.2" r="3.5"/>
<circle class="st0" cx="162" cy="12.2" r="3.5"/>
<circle class="st0" cx="15" cy="410.2" r="3.5"/>
<circle class="st0" cx="36" cy="410.2" r="3.5"/>
<circle class="st0" cx="57" cy="410.2" r="3.5"/>
<circle class="st0" cx="78" cy="410.2" r="3.5"/>
<circle class="st0" cx="99" cy="410.2" r="3.5"/>
<circle class="st0" cx="120" cy="410.2" r="3.5"/>
<circle class="st0" cx="141" cy="410.2" r="3.5"/>
<circle class="st0" cx="162" cy="410.2" r="3.5"/>
<circle class="st0" cx="15" cy="389.2" r="3.5"/>
<circle class="st0" cx="36" cy="389.2" r="3.5"/>
<circle class="st0" cx="57" cy="389.2" r="3.5"/>
<circle class="st0" cx="78" cy="389.2" r="3.5"/>
<circle class="st0" cx="99" cy="389.2" r="3.5"/>
<circle class="st0" cx="120" cy="389.2" r="3.5"/>
<circle class="st0" cx="141" cy="389.2" r="3.5"/>
<circle class="st0" cx="162" cy="389.2" r="3.5"/>
<circle class="st0" cx="15" cy="368.2" r="3.5"/>
<circle class="st0" cx="36" cy="368.2" r="3.5"/>
<circle class="st0" cx="57" cy="368.2" r="3.5"/>
<circle class="st0" cx="78" cy="368.2" r="3.5"/>
<circle class="st0" cx="99" cy="368.2" r="3.5"/>
<circle class="st0" cx="120" cy="368.2" r="3.5"/>
<circle class="st0" cx="141" cy="368.2" r="3.5"/>
<circle class="st0" cx="162" cy="368.2" r="3.5"/>
<circle class="st0" cx="15" cy="347.2" r="3.5"/>
<circle class="st0" cx="36" cy="347.2" r="3.5"/>
<circle class="st0" cx="57" cy="347.2" r="3.5"/>
<circle class="st0" cx="78" cy="347.2" r="3.5"/>
<circle class="st0" cx="99" cy="347.2" r="3.5"/>
<circle class="st0" cx="120" cy="347.2" r="3.5"/>
<circle class="st0" cx="141" cy="347.2" r="3.5"/>
<circle class="st0" cx="162" cy="347.2" r="3.5"/>
<circle class="st0" cx="15" cy="326.2" r="3.5"/>
<circle class="st0" cx="36" cy="326.2" r="3.5"/>
<circle class="st0" cx="57" cy="326.2" r="3.5"/>
<circle class="st0" cx="78" cy="326.2" r="3.5"/>
<circle class="st0" cx="99" cy="326.2" r="3.5"/>
<circle class="st0" cx="120" cy="326.2" r="3.5"/>
<circle class="st0" cx="141" cy="326.2" r="3.5"/>
<circle class="st0" cx="162" cy="326.2" r="3.5"/>
<circle class="st0" cx="15" cy="305.2" r="3.5"/>
<circle class="st0" cx="36" cy="305.2" r="3.5"/>
<circle class="st0" cx="57" cy="305.2" r="3.5"/>
<circle class="st0" cx="78" cy="305.2" r="3.5"/>
<circle class="st0" cx="99" cy="305.2" r="3.5"/>
<circle class="st0" cx="120" cy="305.2" r="3.5"/>
<circle class="st0" cx="141" cy="305.2" r="3.5"/>
<circle class="st0" cx="162" cy="305.2" r="3.5"/>
<circle class="st0" cx="15" cy="284.2" r="3.5"/>
<circle class="st0" cx="36" cy="284.2" r="3.5"/>
<circle class="st0" cx="57" cy="284.2" r="3.5"/>
<circle class="st0" cx="78" cy="284.2" r="3.5"/>
<circle class="st0" cx="99" cy="284.2" r="3.5"/>
<circle class="st0" cx="120" cy="284.2" r="3.5"/>
<circle class="st0" cx="141" cy="284.2" r="3.5"/>
<circle class="st0" cx="162" cy="284.2" r="3.5"/>
<circle class="st0" cx="15" cy="263.2" r="3.5"/>
<circle class="st0" cx="36" cy="263.2" r="3.5"/>
<circle class="st0" cx="57" cy="263.2" r="3.5"/>
<circle class="st0" cx="78" cy="263.2" r="3.5"/>
<circle class="st0" cx="99" cy="263.2" r="3.5"/>
<circle class="st0" cx="120" cy="263.2" r="3.5"/>
<circle class="st0" cx="141" cy="263.2" r="3.5"/>
<circle class="st0" cx="162" cy="263.2" r="3.5"/>
<circle class="st0" cx="15" cy="242.2" r="3.5"/>
<circle class="st0" cx="36" cy="242.2" r="3.5"/>
<circle class="st0" cx="57" cy="242.2" r="3.5"/>
<circle class="st0" cx="78" cy="242.2" r="3.5"/>
<circle class="st0" cx="99" cy="242.2" r="3.5"/>
<circle class="st0" cx="120" cy="242.2" r="3.5"/>
<circle class="st0" cx="141" cy="242.2" r="3.5"/>
<circle class="st0" cx="162" cy="242.2" r="3.5"/>
<circle class="st0" cx="15" cy="221.2" r="3.5"/>
<circle class="st0" cx="36" cy="221.2" r="3.5"/>
<circle class="st0" cx="57" cy="221.2" r="3.5"/>
<circle class="st0" cx="78" cy="221.2" r="3.5"/>
<circle class="st0" cx="99" cy="221.2" r="3.5"/>
<circle class="st0" cx="120" cy="221.2" r="3.5"/>
<circle class="st0" cx="141" cy="221.2" r="3.5"/>
<circle class="st0" cx="162" cy="221.2" r="3.5"/>
</svg>
